<svg xmlns="http://www.w3.org/2000/svg" viewBox="0 0 960 820" width="960" height="820"
     font-family="'Segoe UI','PingFang SC','Microsoft YaHei',sans-serif">
  <defs>
    <marker id="a-dk" viewBox="0 0 10 10" refX="8" refY="5" markerWidth="6" markerHeight="6" orient="auto-start-reverse">
      <path d="M2 1L8 5L2 9" fill="none" stroke="#64748b" stroke-width="1.5" stroke-linecap="round" stroke-linejoin="round"/>
    </marker>
    <marker id="a-bl" viewBox="0 0 10 10" refX="8" refY="5" markerWidth="6" markerHeight="6" orient="auto-start-reverse">
      <path d="M2 1L8 5L2 9" fill="none" stroke="#185fa5" stroke-width="1.5" stroke-linecap="round" stroke-linejoin="round"/>
    </marker>
    <marker id="a-tl" viewBox="0 0 10 10" refX="8" refY="5" markerWidth="6" markerHeight="6" orient="auto-start-reverse">
      <path d="M2 1L8 5L2 9" fill="none" stroke="#1d9e75" stroke-width="1.5" stroke-linecap="round" stroke-linejoin="round"/>
    </marker>
    <marker id="a-am" viewBox="0 0 10 10" refX="8" refY="5" markerWidth="6" markerHeight="6" orient="auto-start-reverse">
      <path d="M2 1L8 5L2 9" fill="none" stroke="#ba7517" stroke-width="1.5" stroke-linecap="round" stroke-linejoin="round"/>
    </marker>
    <marker id="a-gy" viewBox="0 0 10 10" refX="8" refY="5" markerWidth="6" markerHeight="6" orient="auto-start-reverse">
      <path d="M2 1L8 5L2 9" fill="none" stroke="#9ca3af" stroke-width="1.5" stroke-linecap="round" stroke-linejoin="round"/>
    </marker>
  </defs>

  <rect width="960" height="820" fill="#f8fafc" rx="14"/>

  <rect x="28" y="28" width="904" height="108" rx="10"
        fill="#ffffff" stroke="#e2e8f0" stroke-width="1.5" stroke-dasharray="6 4"/>
  <text x="48" y="52" font-size="10" font-weight="600" letter-spacing="0.1em" fill="#b0bcc8">PRESENTATION LAYER · 表现层</text>

  <rect x="92"  y="72" width="216" height="48" rx="24" fill="#f1f5f9" stroke="#cbd5e1" stroke-width="1.5"/>
  <text x="200" y="101" text-anchor="middle" font-size="13" fill="#475569">CSV / Excel 上传</text>

  <rect x="372" y="72" width="216" height="48" rx="24" fill="#f1f5f9" stroke="#cbd5e1" stroke-width="1.5"/>
  <text x="480" y="101" text-anchor="middle" font-size="13" fill="#475569">用户自然语言提问</text>

  <rect x="652" y="72" width="216" height="48" rx="24" fill="#f1f5f9" stroke="#cbd5e1" stroke-width="1.5"/>
  <text x="760" y="101" text-anchor="middle" font-size="13" fill="#475569">Streamlit 动态看板</text>

  <rect x="28" y="168" width="904" height="480" rx="10"
        fill="#ffffff" stroke="#e2e8f0" stroke-width="1.5" stroke-dasharray="6 4"/>
  <text x="48" y="194" font-size="10" font-weight="600" letter-spacing="0.1em" fill="#b0bcc8">LANGGRAPH ENGINE · 智能编排层</text>

  <rect x="356" y="210" width="248" height="68" rx="10"
        fill="#fdf2ee" stroke="#c05a30" stroke-width="2"/>
  <text x="480" y="240" text-anchor="middle" font-size="15" font-weight="600" fill="#7a3318">Router Agent</text>
  <text x="480" y="261" text-anchor="middle" font-size="12" fill="#a04828">意图分发中心</text>

  <rect x="44" y="328" width="588" height="128" rx="9"
        fill="#f0fdf8" stroke="#5dcaa5" stroke-width="1.2" stroke-dasharray="5 3"/>
  <text x="64" y="350" font-size="10" font-weight="600" letter-spacing="0.06em" fill="#0f6e56">AUTO PIPELINE · 一键全自动分析流</text>

  <rect x="60"  y="358" width="184" height="72" rx="8" fill="#e8f7f2" stroke="#1d9e75" stroke-width="1.5"/>
  <text x="152" y="390" text-anchor="middle" font-size="13" font-weight="500" fill="#085041">Cleaning Agent</text>
  <text x="152" y="410" text-anchor="middle" font-size="11" fill="#0f6e56">异常处理 / 规范化</text>

  <rect x="248" y="358" width="184" height="72" rx="8" fill="#e8f7f2" stroke="#1d9e75" stroke-width="1.5"/>
  <text x="340" y="390" text-anchor="middle" font-size="13" font-weight="500" fill="#085041">EDA Agent</text>
  <text x="340" y="410" text-anchor="middle" font-size="11" fill="#0f6e56">分布 / 相关性探索</text>

  <rect x="436" y="358" width="184" height="72" rx="8" fill="#e8f7f2" stroke="#1d9e75" stroke-width="1.5"/>
  <text x="528" y="390" text-anchor="middle" font-size="13" font-weight="500" fill="#085041">Analyst Agent</text>
  <text x="528" y="410" text-anchor="middle" font-size="11" fill="#0f6e56">特定领域建模</text>

  <line x1="244" y1="394" x2="246" y2="394" stroke="#1d9e75" stroke-width="1.5" marker-end="url(#a-tl)"/>
  <line x1="432" y1="394" x2="434" y2="394" stroke="#1d9e75" stroke-width="1.5" marker-end="url(#a-tl)"/>

  <rect x="60"  y="504" width="184" height="72" rx="8" fill="#e6f1fb" stroke="#185fa5" stroke-width="1.5"/>
  <text x="152" y="536" text-anchor="middle" font-size="13" font-weight="500" fill="#0c447c">AB Test Agent</text>
  <text x="152" y="557" text-anchor="middle" font-size="11" fill="#185fa5">统计学显著性检验</text>

  <ellipse cx="480" cy="540" rx="160" ry="36"
           fill="#fef9ec" stroke="#ba7517" stroke-width="1.5"/>
  <text x="480" y="535" text-anchor="middle" font-size="13" font-weight="500" fill="#633806">Graph State</text>
  <text x="480" y="554" text-anchor="middle" font-size="11" fill="#92400e">共享图状态 / Memory</text>

  <rect x="716" y="504" width="184" height="72" rx="8" fill="#e6f1fb" stroke="#185fa5" stroke-width="1.5"/>
  <text x="808" y="536" text-anchor="middle" font-size="13" font-weight="500" fill="#0c447c">Report Agent</text>
  <text x="808" y="557" text-anchor="middle" font-size="11" fill="#185fa5">生成 Insight 与总结</text>

  <rect x="28" y="684" width="904" height="72" rx="10"
        fill="#ffffff" stroke="#e2e8f0" stroke-width="1.5" stroke-dasharray="6 4"/>
  <text x="48" y="706" font-size="10" font-weight="600" letter-spacing="0.1em" fill="#b0bcc8">TOOLING &amp; MODELS · 工具底座</text>

  <rect x="100" y="708" width="200" height="36" rx="7" fill="#f5f4f0" stroke="#888780" stroke-width="1.5"/>
  <text x="200" y="731" text-anchor="middle" font-size="13" font-weight="500" fill="#444441">Python Executor &amp; Tools</text>

  <rect x="380" y="708" width="200" height="36" rx="7" fill="#f5f4f0" stroke="#888780" stroke-width="1.5"/>
  <text x="480" y="731" text-anchor="middle" font-size="13" font-weight="500" fill="#444441">Pandas / SciPy</text>

  <rect x="660" y="708" width="200" height="36" rx="7" fill="#f5f4f0" stroke="#888780" stroke-width="1.5"/>
  <text x="760" y="731" text-anchor="middle" font-size="13" font-weight="500" fill="#444441">LLM APIs</text>

  <path d="M 200 120 C 200 155 356 195 356 244"
        fill="none" stroke="#64748b" stroke-width="1.5" marker-end="url(#a-dk)"/>

  <line x1="480" y1="120" x2="480" y2="202"
        stroke="#64748b" stroke-width="1.5" marker-end="url(#a-dk)"/>

  <path d="M 420 278 C 420 320 152 320 152 348"
        fill="none" stroke="#185fa5" stroke-width="1.5" marker-end="url(#a-bl)"/>
  <rect x="211" y="287" width="138" height="18" rx="4" fill="#eff6ff"/>
  <text x="280" y="300" text-anchor="middle" font-size="10" fill="#185fa5">触发全自动流水线</text>

  <path d="M 356 244 L 30 244 L 30 540 L 52 540"
        fill="none" stroke="#185fa5" stroke-width="1.5" marker-end="url(#a-bl)"/>
  <rect x="106" y="235" width="88" height="18" rx="4" fill="#eff6ff"/>
  <text x="150" y="248" text-anchor="middle" font-size="10" fill="#185fa5">特定实验诉求</text>

  <path d="M 560 278 C 560 320 528 320 528 348"
        fill="none" stroke="#185fa5" stroke-width="1.5" marker-end="url(#a-bl)"/>
  <rect x="490" y="287" width="108" height="18" rx="4" fill="#eff6ff"/>
  <text x="544" y="300" text-anchor="middle" font-size="10" fill="#185fa5">直接提问 / 追问</text>

  <path d="M 620 394 C 660 394 660 540 706 540"
        fill="none" stroke="#64748b" stroke-width="1.5" marker-end="url(#a-dk)"/>

  <path d="M 152 576 C 200 630 760 630 808 586"
        fill="none" stroke="#64748b" stroke-width="1.5" marker-end="url(#a-dk)"/>

  <path d="M 808 504 C 808 160 760 160 760 128"
        fill="none" stroke="#64748b" stroke-width="1.5" marker-end="url(#a-dk)"/>

  <path d="M 604 244 L 670 244 L 670 540 L 650 540"
        fill="none" stroke="#ba7517" stroke-width="1.2" stroke-dasharray="5 3" marker-end="url(#a-am)"/>
  <rect x="630" y="385" width="80" height="18" rx="4" fill="#fffbeb"/>
  <text x="670" y="398" text-anchor="middle" font-size="10" fill="#92400e">更新上下文</text>

  <line x1="340" y1="430" x2="340" y2="512" 
        stroke="#ba7517" stroke-width="1.2" stroke-dasharray="5 3" marker-end="url(#a-am)"/>

  <line x1="244" y1="540" x2="310" y2="540"
        stroke="#ba7517" stroke-width="1.2" stroke-dasharray="5 3" marker-end="url(#a-am)"/>

  <line x1="716" y1="540" x2="650" y2="540"
        stroke="#ba7517" stroke-width="1.2" stroke-dasharray="5 3" marker-end="url(#a-am)"/>

  <line x1="200" y1="648" x2="200" y2="698" stroke="#9ca3af" stroke-width="1.2" stroke-dasharray="4 3" marker-end="url(#a-gy)"/>
  <line x1="480" y1="648" x2="480" y2="698" stroke="#9ca3af" stroke-width="1.2" stroke-dasharray="4 3" marker-end="url(#a-gy)"/>
  <line x1="760" y1="648" x2="760" y2="698" stroke="#9ca3af" stroke-width="1.2" stroke-dasharray="4 3" marker-end="url(#a-gy)"/>

  <rect x="250" y="770" width="460" height="38" rx="19" fill="#ffffff" stroke="#cbd5e1" stroke-width="1.2"/>
  <text x="296" y="794" font-size="11" font-weight="600" letter-spacing="0.05em" fill="#64748b">LEGEND</text>

  <line x1="362" y1="789" x2="388" y2="789" stroke="#185fa5" stroke-width="1.5" marker-end="url(#a-bl)"/>
  <text x="396" y="794" font-size="12" fill="#475569">主数据流</text>

  <line x1="472" y1="789" x2="498" y2="789" stroke="#ba7517" stroke-width="1.2" stroke-dasharray="5 3" marker-end="url(#a-am)"/>
  <text x="506" y="794" font-size="12" fill="#475569">状态读写</text>

  <line x1="582" y1="789" x2="608" y2="789" stroke="#9ca3af" stroke-width="1.2" stroke-dasharray="4 3" marker-end="url(#a-gy)"/>
  <text x="616" y="794" font-size="12" fill="#475569">工具调用</text>

</svg>
